# xmcd database file
#
# Track frame offsets:
# 150
# 16820
# 35295
# 51738
# 68936
# 105204
# 121487
# 142254
# 161592
# 174203
# 198356
# 214228
# 231679
# 252984
#
# Disc length: 3776 seconds
#
# Revision: 1
# Processed by: cddbd v1.5.2PL0 Copyright (c) Steve Scherf et al.
# Submitted via: CD-Runner 2007.00
#
DISCID=cd0ebe0e
DTITLE=Various Artist - Blue Rose Nuggets 19
DYEAR=2006
DGENRE=Rock
TTITLE0=Drive-By Truckers - Feb 14
TTITLE1=John Cate and The Van Gogh Brothers - Under My Wheels
TTITLE2=Hensley Sturgis - After All
TTITLE3=Peter Wells (R.I.P.) - No Second Chances
TTITLE4=Green On Red - The Drifter/Sea Of Cortez
TTITLE5=John Dee Graham - Something Wonderful
TTITLE6=Dan Kibler - Measure Time
TTITLE7=The Yayhoos - For Cryin' Out Loud
TTITLE8=Swinging Steaks - Long Time
TTITLE9=Elliott Murphy, Todd Thibaud, Ad Vanderveen, Andy Horn and Jos
TTITLE10=Chris Burroughs - Driving Blind
TTITLE11=The Bottle Rockets - Middle Man
TTITLE12=Susan Cowsill - Annabelle
TTITLE13=Rich Hopkins and Luminarios - El Camino
EXTD=Bonus CD
EXTT0=
EXTT1=
EXTT2=
EXTT3=
EXTT4=
EXTT5=
EXTT6=
EXTT7=
EXTT8=
EXTT9=
EXTT10=
EXTT11=
EXTT12=
EXTT13=
PLAYORDER=
